<?xml version="1.0" standalone="no"?>
<!DOCTYPE svg PUBLIC "-//W3C//DTD SVG 20010904//EN"
 "http://www.w3.org/TR/2001/REC-SVG-20010904/DTD/svg10.dtd">
<svg version="1.0" xmlns="http://www.w3.org/2000/svg"
 width="1784.000000pt" height="1519.000000pt" viewBox="0 0 1784.000000 1519.000000"
 preserveAspectRatio="xMidYMid meet">

<g transform="translate(0.000000,1519.000000) scale(0.100000,-0.100000)"
fill="#000000" stroke="none">
<path d="M1804 14843 c-61 -192 -122 -319 -221 -468 -113 -170 -178 -240 -367
-396 -110 -91 -351 -211 -560 -279 -125 -40 -190 -53 -379 -76 -64 -7 -68 -20
-62 -197 2 -78 7 -954 10 -1947 3 -993 10 -2820 16 -4060 6 -1240 12 -3060 14
-4045 3 -1644 5 -1790 20 -1801 9 -7 44 -15 78 -19 185 -19 424 -79 562 -139
87 -39 267 -132 315 -164 152 -101 317 -262 403 -392 101 -154 170 -342 198
-543 7 -48 18 -92 26 -99 11 -8 997 -10 4001 -5 2193 4 4401 9 4907 12 2138
11 4514 19 4835 16 409 -4 380 -13 410 119 74 318 194 544 400 750 153 154
357 275 590 353 155 51 348 87 469 87 38 0 81 4 95 10 l26 10 0 6014 c0 4799
-3 6016 -12 6024 -13 9 -88 24 -213 43 -120 17 -325 73 -420 114 -297 128
-477 262 -631 468 -133 179 -233 416 -264 626 -5 34 -17 72 -26 82 -17 19
-160 19 -7100 19 l-7082 0 -38 -117z m7217 -2457 c36 -8 83 -24 105 -35 21
-12 51 -21 67 -21 37 0 93 -56 107 -109 6 -22 15 -43 21 -47 6 -4 22 -30 36
-58 13 -28 30 -62 38 -76 9 -15 15 -52 15 -91 0 -58 -5 -77 -40 -146 -51 -100
-177 -230 -237 -244 -52 -12 -420 -11 -463 1 -41 11 -243 208 -259 253 -14 35
-14 287 -1 321 5 13 61 77 125 140 l115 115 108 4 c59 1 127 4 152 5 25 1 75
-5 111 -12z m-1202 -1073 l21 -18 0 -750 1 -749 -23 -31 c-23 -30 -23 -34 -28
-392 l-5 -361 -25 -34 -25 -33 -5 -532 -5 -531 -23 -24 c-22 -24 -22 -26 -25
-385 l-2 -360 -27 -39 -28 -40 1 -405 c0 -222 3 -411 7 -420 7 -16 127 -152
203 -229 19 -19 54 -41 76 -48 56 -17 93 -53 93 -92 0 -43 -21 -47 -99 -21
-36 12 -97 25 -136 28 -47 4 -77 12 -90 23 -11 10 -37 23 -59 29 -21 5 -46 17
-56 26 -10 9 -45 20 -79 25 -34 5 -72 17 -86 28 -14 11 -48 23 -75 27 -30 4
-94 29 -157 61 -70 35 -120 54 -143 54 -22 0 -49 9 -69 24 -20 15 -53 26 -89
31 -48 6 -65 14 -112 55 -48 41 -65 50 -111 56 -90 11 -153 76 -130 136 12 31
42 38 159 38 l85 0 96 95 96 94 5 400 5 399 25 27 25 27 -4 211 c-2 120 -8
221 -13 232 -6 11 -26 35 -45 54 -30 29 -38 32 -69 26 -69 -12 -123 4 -179 55
-46 41 -60 48 -111 55 -33 4 -71 16 -88 28 -16 11 -54 24 -84 28 -31 4 -67 16
-81 27 -14 10 -41 24 -60 30 -19 7 -42 19 -51 27 -10 9 -45 20 -80 27 -35 6
-79 21 -98 34 -19 13 -43 24 -52 24 -10 0 -29 9 -43 20 -14 12 -41 26 -59 32
-18 6 -46 20 -63 32 -22 16 -51 22 -112 27 -56 3 -88 10 -101 22 -10 9 -37 23
-60 31 -23 8 -54 24 -69 34 -15 11 -52 23 -81 26 -30 4 -67 17 -88 31 -32 22
-48 25 -125 25 -48 0 -99 -4 -113 -10 -13 -5 -71 -54 -127 -110 -74 -71 -110
-100 -128 -100 -17 0 -62 -37 -165 -139 -101 -99 -150 -140 -173 -145 -22 -5
-65 -40 -141 -114 -60 -59 -154 -150 -208 -203 -154 -150 -154 -150 -154 -220
0 -48 4 -63 21 -77 11 -9 29 -33 39 -52 14 -27 36 -44 96 -74 42 -21 85 -47
95 -57 22 -22 25 -62 7 -77 -29 -23 -205 40 -270 96 -11 9 -27 12 -43 8 -20
-5 -34 0 -56 19 -24 20 -41 25 -82 25 -39 0 -62 6 -89 25 -20 14 -43 25 -51
25 -8 0 -30 10 -49 23 -18 13 -49 29 -66 35 -18 6 -45 20 -60 30 -15 11 -52
23 -82 27 -30 4 -67 16 -82 27 -15 10 -42 24 -60 30 -18 6 -45 20 -59 30 -14
11 -52 23 -84 27 -56 8 -85 27 -85 56 0 20 -33 42 -71 49 -20 3 -44 15 -54 26
-11 12 -31 20 -50 20 -45 0 -85 34 -85 71 0 16 6 32 13 35 18 7 120 -21 151
-42 15 -9 60 -20 107 -25 75 -7 82 -6 115 16 19 13 55 46 79 73 42 47 49 50
107 57 60 7 64 9 143 85 50 48 93 80 111 84 18 4 54 30 84 58 79 78 120 108
148 108 15 0 46 19 81 49 31 26 72 56 91 66 19 9 80 61 135 115 64 63 113 102
136 109 19 6 51 28 70 47 19 20 59 48 89 61 34 15 81 50 125 93 39 38 85 73
105 79 19 6 70 44 112 85 48 44 93 77 115 85 28 8 82 54 197 166 148 145 161
155 196 155 64 0 90 17 188 120 73 77 103 102 140 114 32 11 69 38 121 90 47
45 88 76 106 80 20 4 69 43 140 111 72 70 120 108 143 115 22 6 63 37 112 84
43 43 89 78 106 82 16 4 41 15 56 26 15 10 43 24 61 31 22 7 96 71 196 168
118 114 171 159 198 167 22 6 58 31 83 57 26 26 60 50 80 55 23 6 65 37 115
85 48 44 94 79 114 85 20 5 64 38 110 83 50 49 87 77 109 81 18 4 56 29 85 55
28 27 68 53 88 60 19 6 53 30 75 52 58 60 88 70 123 42z m1318 -22 c28 -23 45
-44 48 -65 3 -17 4 -1859 3 -4093 l-3 -4061 -24 -33 c-19 -26 -25 -49 -29
-108 -5 -71 -24 -127 -73 -211 -5 -8 -33 -65 -64 -126 -51 -103 -63 -120 -165
-220 -72 -70 -124 -114 -148 -122 -20 -7 -55 -30 -77 -52 -22 -21 -65 -50 -96
-63 -31 -14 -59 -29 -63 -35 -3 -5 -33 -13 -66 -17 -38 -4 -70 -15 -87 -28
-21 -17 -46 -23 -110 -28 -67 -4 -89 -10 -115 -30 l-33 -24 -357 0 -356 0 -34
25 c-27 21 -48 26 -120 30 -62 4 -92 11 -106 23 -10 9 -34 22 -53 28 -19 7
-48 22 -66 35 -19 15 -46 24 -67 24 -19 0 -47 5 -62 10 -41 16 -141 124 -149
162 -5 22 -39 65 -111 138 -101 104 -103 107 -113 168 -5 34 -19 74 -30 88
-11 14 -23 49 -27 80 -4 32 -15 65 -28 81 -21 27 -21 37 -24 423 -2 217 0 409
3 427 9 51 37 55 387 51 l308 -3 42 -43 43 -42 3 -353 3 -352 39 -80 c31 -64
57 -98 129 -169 l90 -89 352 6 c351 7 353 7 388 31 20 13 52 29 72 35 22 7 59
35 92 70 50 53 56 63 62 117 7 52 14 66 59 118 l51 59 5 2943 5 2942 23 25 23
24 2 1116 2 1116 35 36 c19 21 44 41 55 46 11 4 126 7 255 6 l235 -2 42 -34z
m783 4 c13 -14 34 -25 46 -25 28 0 63 -28 194 -156 67 -66 121 -110 150 -122
25 -11 54 -29 64 -41 11 -12 31 -21 49 -21 25 0 48 -18 129 -97 63 -63 113
-104 139 -114 22 -8 76 -48 120 -88 43 -39 93 -77 111 -83 18 -6 80 -57 140
-114 78 -75 118 -106 145 -113 23 -7 56 -28 83 -56 25 -25 60 -50 80 -55 22
-6 63 -37 109 -81 41 -40 93 -79 120 -90 26 -11 74 -48 111 -84 37 -36 85 -73
111 -84 32 -13 88 -59 174 -143 78 -76 141 -128 162 -135 20 -7 70 -46 113
-87 51 -49 89 -76 111 -81 22 -5 60 -33 114 -85 49 -47 93 -80 111 -84 18 -4
61 -36 108 -81 46 -44 93 -79 114 -86 22 -7 68 -41 113 -85 51 -50 88 -76 109
-81 22 -4 60 -32 119 -89 58 -56 94 -83 110 -84 17 0 55 -30 125 -99 73 -72
117 -106 157 -124 37 -16 69 -40 95 -71 30 -36 45 -46 69 -46 25 0 49 -19 138
-104 74 -71 119 -107 140 -112 21 -4 59 -33 107 -80 50 -48 91 -79 120 -89 24
-9 51 -22 60 -29 8 -7 35 -23 60 -35 25 -12 56 -28 70 -36 16 -9 55 -15 105
-16 44 0 105 -4 135 -7 55 -7 55 -7 58 -44 3 -31 -2 -40 -31 -62 -38 -29 -142
-82 -181 -92 -13 -3 -34 -17 -47 -30 -20 -21 -174 -104 -193 -104 -4 0 -20
-10 -36 -22 -17 -12 -54 -25 -86 -29 -32 -4 -70 -17 -85 -28 -16 -12 -54 -25
-87 -29 -36 -5 -70 -17 -87 -30 -15 -12 -40 -22 -55 -22 -15 0 -36 -10 -50
-25 -16 -17 -34 -25 -57 -25 -23 0 -40 -8 -55 -25 -15 -18 -32 -25 -57 -25
-43 0 -125 -21 -166 -43 -41 -21 -65 -7 -65 38 0 33 3 36 73 69 39 19 87 37
105 41 27 5 37 15 49 43 8 20 26 47 39 59 25 23 30 59 17 123 -9 47 -402 436
-448 444 -23 5 -53 28 -104 84 -40 42 -87 92 -103 110 -23 23 -40 32 -64 32
-28 0 -52 19 -194 158 -89 86 -171 161 -183 165 -12 5 -77 7 -144 5 -104 -3
-125 -6 -150 -24 -15 -11 -43 -26 -61 -32 -18 -6 -45 -20 -60 -30 -15 -11 -40
-22 -56 -26 -16 -4 -40 -16 -53 -26 -14 -10 -45 -22 -71 -25 -39 -5 -141 -49
-235 -102 -12 -7 -42 -13 -66 -13 -31 0 -51 -7 -72 -24 -19 -16 -48 -27 -83
-31 -34 -5 -68 -17 -87 -31 -18 -13 -40 -24 -50 -24 -9 0 -34 -12 -55 -27 -32
-22 -54 -28 -121 -32 -60 -5 -89 -11 -110 -27 -15 -11 -44 -26 -63 -33 -19 -6
-56 -31 -81 -55 l-46 -43 -114 -5 c-129 -7 -134 -10 -144 -92 -3 -28 -4 -310
-2 -628 l4 -576 42 -85 c30 -62 56 -98 95 -135 l55 -50 134 -4 c149 -4 167
-11 167 -62 0 -39 -48 -89 -100 -107 -19 -7 -48 -21 -63 -32 -16 -11 -55 -22
-88 -26 -38 -5 -67 -15 -81 -28 -14 -13 -44 -24 -78 -28 -30 -4 -71 -17 -90
-30 -19 -13 -46 -26 -60 -30 -13 -4 -36 -16 -50 -26 -14 -11 -47 -22 -75 -25
-27 -3 -66 -16 -85 -29 -19 -12 -61 -25 -92 -29 -33 -4 -68 -16 -83 -27 -14
-12 -51 -24 -85 -29 -44 -6 -69 -17 -99 -40 -22 -18 -42 -39 -45 -47 -4 -11
-21 -14 -68 -12 -63 2 -139 -17 -185 -47 -46 -30 -113 -9 -113 35 0 28 32 50
85 60 28 5 55 17 64 29 9 11 30 27 47 35 17 9 43 34 57 56 15 23 31 41 36 41
12 0 77 99 87 130 4 13 16 37 28 53 20 28 21 41 24 356 l3 328 -28 34 -28 33
-5 447 -5 447 -25 27 -25 27 0 339 0 340 -25 19 -25 19 -5 508 -5 508 -25 35
-25 35 -2 383 -1 383 -26 38 -26 37 0 327 0 327 36 40 c45 50 96 56 134 15z"/>
<path d="M6892 10180 c-252 -250 -308 -300 -331 -300 -23 0 -56 -28 -172 -140
-116 -113 -149 -140 -172 -140 -22 0 -40 -13 -78 -54 -31 -34 -64 -60 -89 -68
-27 -9 -84 -58 -198 -168 -320 -312 -329 -320 -360 -320 -15 0 -33 -5 -40 -12
-13 -13 -16 -56 -6 -82 9 -24 131 -79 192 -87 30 -4 61 -14 71 -23 9 -9 37
-22 61 -31 24 -9 51 -22 60 -30 9 -8 32 -20 51 -26 19 -7 47 -21 63 -33 22
-15 52 -22 113 -26 l82 -5 54 -53 c49 -49 56 -52 102 -52 37 0 60 -7 86 -24
21 -15 59 -28 90 -32 30 -4 66 -15 81 -26 15 -10 42 -24 60 -30 18 -6 45 -20
59 -30 14 -11 50 -23 81 -27 30 -4 68 -17 84 -28 17 -12 43 -25 59 -29 15 -4
52 -29 82 -55 52 -48 82 -59 113 -39 13 8 16 82 20 537 l5 528 28 40 27 40 0
321 0 321 27 39 c24 35 27 50 29 142 3 95 6 108 35 158 25 44 30 62 25 89 -7
37 -30 55 -68 55 -17 -1 -107 -84 -326 -300z"/>
<path d="M10370 10426 c-15 -41 -1 -138 26 -166 23 -25 23 -27 26 -330 l3
-305 25 -33 25 -34 5 -338 c5 -320 6 -339 25 -360 19 -21 20 -40 25 -299 3
-152 9 -282 13 -288 14 -23 71 -14 140 21 36 18 74 39 82 46 9 7 54 16 100 20
57 5 91 12 103 23 10 9 38 23 62 32 24 9 51 22 60 30 9 8 32 20 51 26 19 7 45
20 59 29 14 9 40 22 58 28 18 6 45 20 59 32 18 14 41 20 79 20 43 0 58 5 80
25 28 26 38 30 109 39 21 3 51 14 65 24 14 10 40 24 58 30 18 6 45 20 59 32
17 13 41 20 71 20 33 0 56 7 84 26 23 16 56 28 85 31 75 7 88 11 116 37 21 20
27 34 27 69 0 43 -3 47 -122 165 -143 141 -193 182 -221 182 -12 0 -73 52
-156 134 -96 94 -145 135 -167 140 -22 5 -67 41 -143 116 -79 77 -120 110
-144 115 -23 5 -69 44 -173 146 -105 103 -147 139 -165 139 -19 0 -59 34 -160
136 -74 75 -161 155 -194 177 -33 23 -68 51 -78 64 -24 30 -45 29 -57 -1z"/>
</g>
</svg>
